<svg xmlns="http://www.w3.org/2000/svg" width="1440" height="900" opacity="0.2"><path d="M727,338L935,215L734,199Z" fill="#d778b6" stroke="#d778b6" stroke-width="1.51"/><path d="M727,338L984,301L935,215Z" fill="#db6dae" stroke="#db6dae" stroke-width="1.51"/><path d="M727,338L881,558L984,301Z" fill="#e060a9" stroke="#e060a9" stroke-width="1.51"/><path d="M914,-29L670,3L734,199Z" fill="#dd8dc1" stroke="#dd8dc1" stroke-width="1.51"/><path d="M984,301L1122,184L935,215Z" fill="#dc6ba7" stroke="#dc6ba7" stroke-width="1.51"/><path d="M1124,375L1122,184L984,301Z" fill="#da629e" stroke="#da629e" stroke-width="1.51"/><path d="M881,558L1124,375L984,301Z" fill="#e2539f" stroke="#e2539f" stroke-width="1.51"/><path d="M734,199L475,184L727,338Z" fill="#d285bf" stroke="#d285bf" stroke-width="1.51"/><path d="M914,-29L734,199L935,215Z" fill="#dd80b7" stroke="#dd80b7" stroke-width="1.51"/><path d="M1122,184L914,-29L935,215Z" fill="#e077ae" stroke="#e077ae" stroke-width="1.51"/><path d="M727,338L777,600L881,558Z" fill="#e259a6" stroke="#e259a6" stroke-width="1.51"/><path d="M670,3L475,184L734,199Z" fill="#d691c5" stroke="#d691c5" stroke-width="1.51"/><path d="M727,338L533,593L777,600Z" fill="#df62ab" stroke="#df62ab" stroke-width="1.51"/><path d="M475,184L459,335L727,338Z" fill="#d187c0" stroke="#d187c0" stroke-width="1.51"/><path d="M459,335L533,593L727,338Z" fill="#d976b7" stroke="#d976b7" stroke-width="1.51"/><path d="M777,600L984,686L881,558Z" fill="#e54195" stroke="#e54195" stroke-width="1.51"/><path d="M881,558L1133,606L1124,375Z" fill="#e34192" stroke="#e34192" stroke-width="1.51"/><path d="M761,749L984,686L777,600Z" fill="#e43e91" stroke="#e43e91" stroke-width="1.51"/><path d="M984,686L1133,606L881,558Z" fill="#e7318d" stroke="#e7318d" stroke-width="1.51"/><path d="M1124,375L1284,307L1122,184Z" fill="#d65f94" stroke="#d65f94" stroke-width="1.51"/><path d="M1346,619L1284,307L1124,375Z" fill="#d94785" stroke="#d94785" stroke-width="1.51"/><path d="M1122,184L1114,-83L914,-29Z" fill="#e37fad" stroke="#e37fad" stroke-width="1.51"/><path d="M737,-292L531,-108L670,3Z" fill="#e2a9d1" stroke="#e2a9d1" stroke-width="1.51"/><path d="M1340,-86L1114,-83L1122,184Z" fill="#de7ca0" stroke="#de7ca0" stroke-width="1.51"/><path d="M533,593L761,749L777,600Z" fill="#e3519e" stroke="#e3519e" stroke-width="1.51"/><path d="M670,3L531,-108L475,184Z" fill="#d59fcc" stroke="#d59fcc" stroke-width="1.51"/><path d="M737,-292L670,3L914,-29Z" fill="#e59dc9" stroke="#e59dc9" stroke-width="1.51"/><path d="M1133,606L1346,619L1124,375Z" fill="#dd3a81" stroke="#dd3a81" stroke-width="1.51"/><path d="M984,686L1126,738L1133,606Z" fill="#e2257f" stroke="#e2257f" stroke-width="1.51"/><path d="M1141,939L1126,738L959,997Z" fill="#d21a67" stroke="#d21a67" stroke-width="1.51"/><path d="M1114,-83L961,-328L914,-29Z" fill="#ee92bb" stroke="#ee92bb" stroke-width="1.51"/><path d="M1340,-86L1152,-196L1114,-83Z" fill="#e589a5" stroke="#e589a5" stroke-width="1.51"/><path d="M961,-328L737,-292L914,-29Z" fill="#ee9ec6" stroke="#ee9ec6" stroke-width="1.51"/><path d="M475,184L258,128L459,335Z" fill="#cb9aca" stroke="#cb9aca" stroke-width="1.51"/><path d="M459,335L244,597L533,593Z" fill="#d87ab7" stroke="#d87ab7" stroke-width="1.51"/><path d="M272,-49L258,128L475,184Z" fill="#d0aad2" stroke="#d0aad2" stroke-width="1.51"/><path d="M272,-49L475,184L531,-108Z" fill="#d1abd3" stroke="#d1abd3" stroke-width="1.51"/><path d="M258,128L245,365L459,335Z" fill="#ce99c9" stroke="#ce99c9" stroke-width="1.51"/><path d="M1284,307L1398,101L1122,184Z" fill="#d46790" stroke="#d46790" stroke-width="1.51"/><path d="M1476,317L1398,101L1284,307Z" fill="#c65e89" stroke="#c65e89" stroke-width="1.51"/><path d="M533,593L546,803L761,749Z" fill="#de5599" stroke="#de5599" stroke-width="1.51"/><path d="M761,749L777,887L984,686Z" fill="#de3a85" stroke="#de3a85" stroke-width="1.51"/><path d="M324,802L546,803L533,593Z" fill="#d8649c" stroke="#d8649c" stroke-width="1.51"/><path d="M737,-292L556,-274L531,-108Z" fill="#e4b1d5" stroke="#e4b1d5" stroke-width="1.51"/><path d="M737,-292L266,-324L556,-274Z" fill="#e2bbdb" stroke="#e2bbdb" stroke-width="1.51"/><path d="M1152,-196L961,-328L1114,-83Z" fill="#ed92b4" stroke="#ed92b4" stroke-width="1.51"/><path d="M546,803L777,887L761,749Z" fill="#da4988" stroke="#da4988" stroke-width="1.51"/><path d="M1126,738L1346,619L1133,606Z" fill="#de2177" stroke="#de2177" stroke-width="1.51"/><path d="M1152,-196L1332,-319L961,-328Z" fill="#ee93af" stroke="#ee93af" stroke-width="1.51"/><path d="M1398,101L1340,-86L1122,184Z" fill="#d77394" stroke="#d77394" stroke-width="1.51"/><path d="M266,-324L272,-49L531,-108Z" fill="#dac0de" stroke="#dac0de" stroke-width="1.51"/><path d="M1497,491L1476,317L1284,307Z" fill="#c84c80" stroke="#c84c80" stroke-width="1.51"/><path d="M1398,101L1495,-33L1340,-86Z" fill="#ce7692" stroke="#ce7692" stroke-width="1.51"/><path d="M245,365L244,597L459,335Z" fill="#d789c0" stroke="#d789c0" stroke-width="1.51"/><path d="M245,365L159,411L244,597Z" fill="#db8dc2" stroke="#db8dc2" stroke-width="1.51"/><path d="M154,126L159,411L245,365Z" fill="#d2a0cc" stroke="#d2a0cc" stroke-width="1.51"/><path d="M154,126L245,365L258,128Z" fill="#cfa6d0" stroke="#cfa6d0" stroke-width="1.51"/><path d="M272,-49L154,126L258,128Z" fill="#d3b3d6" stroke="#d3b3d6" stroke-width="1.51"/><path d="M1346,619L1497,491L1284,307Z" fill="#cf3e7c" stroke="#cf3e7c" stroke-width="1.51"/><path d="M546,803L584,993L777,887Z" fill="#d14c83" stroke="#d14c83" stroke-width="1.51"/><path d="M244,597L324,802L533,593Z" fill="#dd6fa9" stroke="#dd6fa9" stroke-width="1.51"/><path d="M160,698L324,802L244,597Z" fill="#df76a8" stroke="#df76a8" stroke-width="1.51"/><path d="M1554,156L1398,101L1476,317Z" fill="#bf6087" stroke="#bf6087" stroke-width="1.51"/><path d="M1554,156L1495,-33L1398,101Z" fill="#c26b8c" stroke="#c26b8c" stroke-width="1.51"/><path d="M1340,-86L1332,-319L1152,-196Z" fill="#e68ca0" stroke="#e68ca0" stroke-width="1.51"/><path d="M1769,137L1554,156L1775,366Z" fill="#a95678" stroke="#a95678" stroke-width="1.51"/><path d="M1346,619L1588,746L1497,491Z" fill="#c6216b" stroke="#c6216b" stroke-width="1.51"/><path d="M1126,738L1390,808L1346,619Z" fill="#d61a66" stroke="#d61a66" stroke-width="1.51"/><path d="M959,997L1126,738L984,686Z" fill="#dd2073" stroke="#dd2073" stroke-width="1.51"/><path d="M777,887L959,997L984,686Z" fill="#da2e75" stroke="#da2e75" stroke-width="1.51"/><path d="M766,1205L959,997L777,887Z" fill="#c23071" stroke="#c23071" stroke-width="1.51"/><path d="M159,411L143,600L244,597Z" fill="#de88bc" stroke="#de88bc" stroke-width="1.51"/><path d="M-77,590L143,600L159,411Z" fill="#e390c0" stroke="#e390c0" stroke-width="1.51"/><path d="M326,959L584,993L546,803Z" fill="#ca5a87" stroke="#ca5a87" stroke-width="1.51"/><path d="M1330,932L1390,808L1126,738Z" fill="#d01459" stroke="#d01459" stroke-width="1.51"/><path d="M1556,-310L1332,-319L1340,-86Z" fill="#d9889b" stroke="#d9889b" stroke-width="1.51"/><path d="M143,600L160,698L244,597Z" fill="#e27eb3" stroke="#e27eb3" stroke-width="1.51"/><path d="M324,802L326,959L546,803Z" fill="#d3658e" stroke="#d3658e" stroke-width="1.51"/><path d="M556,-274L266,-324L531,-108Z" fill="#dcbddc" stroke="#dcbddc" stroke-width="1.51"/><path d="M272,-49L55,-127L154,126Z" fill="#d7bfdd" stroke="#d7bfdd" stroke-width="1.51"/><path d="M961,-328L266,-324L737,-292Z" fill="#eab2d6" stroke="#eab2d6" stroke-width="1.51"/><path d="M1141,939L1330,932L1126,738Z" fill="#d0155c" stroke="#d0155c" stroke-width="1.51"/><path d="M1077,1123L1330,932L1141,939Z" fill="#bf1058" stroke="#bf1058" stroke-width="1.51"/><path d="M123,953L326,959L324,802Z" fill="#cf6c8f" stroke="#cf6c8f" stroke-width="1.51"/><path d="M266,-324L168,-266L272,-49Z" fill="#decae3" stroke="#decae3" stroke-width="1.51"/><path d="M959,997L1077,1123L1141,939Z" fill="#c21562" stroke="#c21562" stroke-width="1.51"/><path d="M766,1205L991,1113L959,997Z" fill="#b92567" stroke="#b92567" stroke-width="1.51"/><path d="M766,1205L777,887L584,993Z" fill="#c03e79" stroke="#c03e79" stroke-width="1.51"/><path d="M154,126L-40,190L159,411Z" fill="#d1acd3" stroke="#d1acd3" stroke-width="1.51"/><path d="M168,-266L55,-127L272,-49Z" fill="#ddcce4" stroke="#ddcce4" stroke-width="1.51"/><path d="M-80,-17L-40,190L154,126Z" fill="#d8bfdd" stroke="#d8bfdd" stroke-width="1.51"/><path d="M143,600L-28,753L160,698Z" fill="#e482af" stroke="#e482af" stroke-width="1.51"/><path d="M991,1113L1077,1123L959,997Z" fill="#bc1562" stroke="#bc1562" stroke-width="1.51"/><path d="M1497,491L1775,366L1476,317Z" fill="#b84479" stroke="#b84479" stroke-width="1.51"/><path d="M1390,808L1588,746L1346,619Z" fill="#c61561" stroke="#c61561" stroke-width="1.51"/><path d="M1493,997L1588,746L1390,808Z" fill="#ba0b4f" stroke="#ba0b4f" stroke-width="1.51"/><path d="M1493,997L1390,808L1330,932Z" fill="#ba0b4f" stroke="#ba0b4f" stroke-width="1.51"/><path d="M1588,746L1702,527L1497,491Z" fill="#bb2568" stroke="#bb2568" stroke-width="1.51"/><path d="M1750,-115L1556,-310L1495,-33Z" fill="#c27d90" stroke="#c27d90" stroke-width="1.51"/><path d="M160,698L123,953L324,802Z" fill="#da7499" stroke="#da7499" stroke-width="1.51"/><path d="M-40,190L-88,378L159,411Z" fill="#daa9d1" stroke="#daa9d1" stroke-width="1.51"/><path d="M1769,137L1495,-33L1554,156Z" fill="#b66585" stroke="#b66585" stroke-width="1.51"/><path d="M1495,-33L1556,-310L1340,-86Z" fill="#d08196" stroke="#d08196" stroke-width="1.51"/><path d="M991,1113L766,1205L1077,1123Z" fill="#b31e60" stroke="#b31e60" stroke-width="1.51"/><path d="M473,1202L766,1205L584,993Z" fill="#b04574" stroke="#b04574" stroke-width="1.51"/><path d="M1775,366L1554,156L1476,317Z" fill="#b2527d" stroke="#b2527d" stroke-width="1.51"/><path d="M1702,527L1775,366L1497,491Z" fill="#b4376f" stroke="#b4376f" stroke-width="1.51"/><path d="M-40,190L-235,300L-88,378Z" fill="#dcb6d8" stroke="#dcb6d8" stroke-width="1.51"/><path d="M55,-127L-80,-17L154,126Z" fill="#dbc6e1" stroke="#dbc6e1" stroke-width="1.51"/><path d="M-43,-271L-80,-17L55,-127Z" fill="#e3d8ea" stroke="#e3d8ea" stroke-width="1.51"/><path d="M-88,378L-77,590L159,411Z" fill="#e39cca" stroke="#e39cca" stroke-width="1.51"/><path d="M326,959L473,1202L584,993Z" fill="#b75681" stroke="#b75681" stroke-width="1.51"/><path d="M-28,753L123,953L160,698Z" fill="#df7e9f" stroke="#df7e9f" stroke-width="1.51"/><path d="M1396,1194L1493,997L1330,932Z" fill="#a90549" stroke="#a90549" stroke-width="1.51"/><path d="M1588,746L1779,692L1702,527Z" fill="#b2145b" stroke="#b2145b" stroke-width="1.51"/><path d="M1702,527L1779,692L1775,366Z" fill="#ac2c62" stroke="#ac2c62" stroke-width="1.51"/><path d="M-77,590L-28,753L143,600Z" fill="#e989b7" stroke="#e989b7" stroke-width="1.51"/><path d="M272,1150L473,1202L326,959Z" fill="#b15c80" stroke="#b15c80" stroke-width="1.51"/><path d="M1769,137L1750,-115L1495,-33Z" fill="#b56c84" stroke="#b56c84" stroke-width="1.51"/><path d="M266,-324L-43,-271L168,-266Z" fill="#e4d5e8" stroke="#e4d5e8" stroke-width="1.51"/><path d="M168,-266L-43,-271L55,-127Z" fill="#e4d7ea" stroke="#e4d7ea" stroke-width="1.51"/><path d="M1772,958L1779,692L1588,746Z" fill="#a70b48" stroke="#a70b48" stroke-width="1.51"/><path d="M123,953L272,1150L326,959Z" fill="#c0688a" stroke="#c0688a" stroke-width="1.51"/><path d="M-77,590L-283,689L-28,753Z" fill="#ee92b8" stroke="#ee92b8" stroke-width="1.51"/><path d="M-88,378L-250,559L-77,590Z" fill="#eaa1ca" stroke="#eaa1ca" stroke-width="1.51"/><path d="M-363,187L-235,300L-40,190Z" fill="#dcbfdd" stroke="#dcbfdd" stroke-width="1.51"/><path d="M-363,187L-40,190L-80,-17Z" fill="#ddc7e2" stroke="#ddc7e2" stroke-width="1.51"/><path d="M1493,997L1772,958L1588,746Z" fill="#a70646" stroke="#a70646" stroke-width="1.51"/><path d="M1077,1123L1396,1194L1330,932Z" fill="#b0084b" stroke="#b0084b" stroke-width="1.51"/><path d="M766,1205L1396,1194L1077,1123Z" fill="#ad1153" stroke="#ad1153" stroke-width="1.51"/><path d="M1769,137L1752,-298L1750,-115Z" fill="#b17282" stroke="#b17282" stroke-width="1.51"/><path d="M1750,-115L1752,-298L1556,-310Z" fill="#be7e8c" stroke="#be7e8c" stroke-width="1.51"/><path d="M-235,300L-250,559L-88,378Z" fill="#e6acd3" stroke="#e6acd3" stroke-width="1.51"/><path d="M-24,1139L89,1174L123,953Z" fill="#bd718a" stroke="#bd718a" stroke-width="1.51"/><path d="M123,953L89,1174L272,1150Z" fill="#b86a87" stroke="#b86a87" stroke-width="1.51"/><path d="M1598,1194L1772,958L1493,997Z" fill="#93003f" stroke="#93003f" stroke-width="1.51"/><path d="M-144,945L123,953L-28,753Z" fill="#dc8199" stroke="#dc8199" stroke-width="1.51"/><path d="M272,1150L89,1174L473,1202Z" fill="#aa5e7b" stroke="#aa5e7b" stroke-width="1.51"/><path d="M-291,-231L-299,-69L-80,-17Z" fill="#e8dfee" stroke="#e8dfee" stroke-width="1.51"/><path d="M-363,187L-283,689L-250,559Z" fill="#eda9d0" stroke="#eda9d0" stroke-width="1.51"/><path d="M-283,689L-144,945L-28,753Z" fill="#e98ea7" stroke="#e98ea7" stroke-width="1.51"/><path d="M-250,559L-283,689L-77,590Z" fill="#f09ac0" stroke="#f09ac0" stroke-width="1.51"/><path d="M-363,187L-250,559L-235,300Z" fill="#e4b5d8" stroke="#e4b5d8" stroke-width="1.51"/><path d="M-299,-69L-363,187L-80,-17Z" fill="#e2d2e7" stroke="#e2d2e7" stroke-width="1.51"/><path d="M1396,1194L1598,1194L1493,997Z" fill="#95013e" stroke="#95013e" stroke-width="1.51"/><path d="M766,1205L1598,1194L1396,1194Z" fill="#a20841" stroke="#a20841" stroke-width="1.51"/><path d="M-144,945L-24,1139L123,953Z" fill="#ca7a93" stroke="#ca7a93" stroke-width="1.51"/><path d="M-299,-69L-291,-231L-363,187Z" fill="#e8dcec" stroke="#e8dcec" stroke-width="1.51"/><path d="M-43,-271L-291,-231L-80,-17Z" fill="#e8e2f0" stroke="#e8e2f0" stroke-width="1.51"/><path d="M266,-324L-291,-231L-43,-271Z" fill="#e9dfee" stroke="#e9dfee" stroke-width="1.51"/><path d="M1598,1194L1799,1109L1772,958Z" fill="#850035" stroke="#850035" stroke-width="1.51"/><path d="M1772,958L1799,1109L1779,692Z" fill="#96043a" stroke="#96043a" stroke-width="1.51"/><path d="M1779,692L1799,1109L1775,366Z" fill="#a60f4d" stroke="#a60f4d" stroke-width="1.51"/><path d="M1775,366L1799,1109L1769,137Z" fill="#a92a5f" stroke="#a92a5f" stroke-width="1.51"/><path d="M-283,689L-331,906L-144,945Z" fill="#e98fa2" stroke="#e98fa2" stroke-width="1.51"/><path d="M-144,945L-283,1124L-24,1139Z" fill="#c67f93" stroke="#c67f93" stroke-width="1.51"/><path d="M-363,187L-331,906L-283,689Z" fill="#f29fc4" stroke="#f29fc4" stroke-width="1.51"/><path d="M-331,906L-283,1124L-144,945Z" fill="#d5879a" stroke="#d5879a" stroke-width="1.51"/><path d="M-24,1139L-283,1124L89,1174Z" fill="#ba7889" stroke="#ba7889" stroke-width="1.51"/></svg>